<?xml version="1.0" encoding="UTF-8" standalone="no"?>
<!-- Created with Inkscape (http://www.inkscape.org/) -->
<svg xmlns:inkscape="http://www.inkscape.org/namespaces/inkscape" xmlns:rdf="http://www.w3.org/1999/02/22-rdf-syntax-ns#" xmlns="http://www.w3.org/2000/svg" xmlns:xlink="http://www.w3.org/1999/xlink" xmlns:ns1="http://sozi.baierouge.fr" xmlns:cc="http://creativecommons.org/ns#" xmlns:sodipodi="http://sodipodi.sourceforge.net/DTD/sodipodi-0.dtd" xmlns:dc="http://purl.org/dc/elements/1.1/" id="svg2" xml:space="preserve" viewBox="0 0 33.231 39.785" version="1.1" inkscape:version="0.91 r13725">
  <defs id="defs6">
    <linearGradient id="linearGradient156" y2="-17632" gradientUnits="userSpaceOnUse" x2="1567.7" gradientTransform="matrix(-.13912 -.78784 .78784 -.13912 14118 -1213.4)" y1="-17632" x1="1549.4">
      <stop id="stop158" style="stop-color:#76a221" offset="0"/>
      <stop id="stop160" style="stop-color:#5b890e" offset="1"/>
    </linearGradient>
  </defs>
  <g id="g10" transform="matrix(1.25 0 0 -1.25 0 39.785)">
    <g id="g12">
      <path id="path14" style="fill-rule:evenodd;fill:#cfb136" d="m12.09 26.738c-0.133 0.719-0.293 1.172-0.477 1.359-0.187 0.188-0.468 0.375-0.843 0.563-0.614 0.211-0.946 0.344-1 0.398-0.133 0.106 0.054 0.293 0.562 0.559 0.055 0.027 0.281 0.066 0.68 0.121 0.215 0.055 0.32 0.188 0.32 0.398-0.027 0.297 0.066 0.536 0.281 0.723 0.317 0.293 0.692 0.492 1.117 0.598 0.161 0.054 0.641 0.148 1.442 0.281 0.48 0.078 0.773 0.106 0.879 0.078 0.133 0 0.32-0.066 0.562-0.199 0.211-0.133 0.383-0.184 0.52-0.16 0.293 0 0.691 0.027 1.199 0.082 0.371-0.055 1.012-0.348 1.918-0.879 0.453-0.215 0.855-0.457 1.203-0.723 0.238-0.187 0.359-0.347 0.359-0.48 0.024-0.078 0.012-0.16-0.042-0.238-0.079-0.083-0.133-0.149-0.157-0.2-0.136-0.187-0.136-0.359 0-0.519 0.157-0.27 0.438-0.641 0.84-1.121 0.399-0.641 0.559-1.082 0.477-1.321-0.078-0.242-0.383-0.359-0.918-0.359-0.668-0.027-1.36-0.402-2.082-1.121-0.211-0.215-0.344-0.387-0.399-0.52l-4.879 1.039-1.48 0.563c0 0.476-0.027 0.84-0.082 1.078z" inkscape:connector-curvature="0"/>
      <path id="path16" style="fill-rule:evenodd;fill:#c4a93a" d="m12.332 27.976c0-0.476-0.027-0.84-0.082-1.078l-0.121-0.359-0.039 0.199v0.078l0.082 0.16v0.762c0 0.266-0.082 0.547-0.242 0.84l0.082-0.078c0.16-0.16 0.265-0.336 0.32-0.524z" inkscape:connector-curvature="0"/>
      <path id="path18" style="fill-rule:evenodd;fill:#c4a93a" d="m12.973 26.937c-0.028 0-0.11 0.067-0.243 0.199l0.122-0.039c0.187-0.05 0.304-0.066 0.359-0.039 0.105 0.028 0.254 0.133 0.441 0.321 0.266 0.187 0.399 0.293 0.399 0.32l0.121 0.598 0.758-0.118h0.281c0.027 0 0.094 0.106 0.199 0.321 0.16 0.453 0.215 0.972 0.16 1.558-0.05 0.508-0.117 0.825-0.199 0.961-0.078 0.106-0.133 0.2-0.16 0.278-0.027 0.082 0.027 0.136 0.16 0.16 0.055 0.027 0.188 0 0.399-0.078l0.441-0.039 0.121-0.403c0.293-0.48 0.438-0.894 0.438-1.238 0.027-0.242 0-0.602-0.079-1.082 0.055-0.453 0.188-0.691 0.399-0.719 0.16 0 0.336 0.106 0.523 0.321 0.024-0.028 0.051-0.122 0.078-0.282 0.028-0.133 0.067-0.211 0.121-0.238 0.211-0.16 0.559 0 1.04 0.48l0.761 0.84 0.36 0.039c0.05-0.105 0.039-0.308-0.043-0.601 0.269 0.242 0.496 0.015 0.683-0.68l0.078-0.437c0-0.082-0.144-0.27-0.441-0.563-0.371-0.371-0.625-0.719-0.758-1.039h-0.082c-0.133 0-0.226 0.066-0.277 0.199-0.055 0.082-0.082 0.254-0.082 0.52l0.082 0.16c0.051 0.133 0.199 0.32 0.437 0.562 0.242 0.321 0.348 0.68 0.321 1.079-0.079 0.027-0.145 0.015-0.2-0.039l-0.039 0.121-0.121-0.243-0.519-0.679c-0.106-0.106-0.442-0.348-1-0.719-0.426-0.215-0.696-0.188-0.801 0.078v0.641c-0.078-0.028-0.121 0-0.121 0.082 0 0.078-0.012 0.133-0.039 0.16-0.371-0.242-0.598-0.348-0.68-0.32l-0.039 0.238v0.281l0.121 0.84v1.359c-0.027 0.078-0.148 0.266-0.363 0.559v-1.117c-0.024-0.43-0.094-0.789-0.199-1.082l-0.399-0.918c-0.347-0.453-0.547-0.696-0.601-0.723-0.133-0.133-0.278-0.183-0.438-0.16-0.137 0.027-0.23 0.121-0.281 0.281-0.055 0.215-0.094 0.36-0.121 0.442-0.055-0.028-0.106-0.11-0.16-0.243-0.055-0.16-0.106-0.238-0.161-0.238-0.265 0.024-0.437 0.039-0.519 0.039h-0.039l-0.199 0.039z" inkscape:connector-curvature="0"/>
      <path id="path20" style="fill-rule:evenodd;fill:#c4a93a" d="m11.453 29.66 0.117-0.481c-0.078 0.125-0.183 0.231-0.32 0.321l-0.238 0.078 0.16 0.121 0.039 0.039h0.16l0.082-0.078z" inkscape:connector-curvature="0"/>
      <path id="path22" style="fill-rule:evenodd;fill:#c4a93a" d="m20.41 28.738v0.121l0.16 0.078c-0.078-0.105-0.066-0.254 0.043-0.437 0.157-0.27 0.438-0.641 0.84-1.121l0.117-0.2c-0.043-0.171-0.082-0.308-0.117-0.421 0 0.054-0.015 0.117-0.043 0.179 0.055 0.133 0 0.309-0.16 0.52-0.211 0.269-0.371 0.469-0.48 0.601-0.211 0.266-0.332 0.493-0.36 0.68z" inkscape:connector-curvature="0"/>
      <path id="path24" style="fill-rule:evenodd;fill:#b89e36" d="m16.332 26.937 0.039 0.403c0.078-0.028 0.305 0.078 0.68 0.32 0.027-0.027 0.039-0.082 0.039-0.16 0-0.082 0.039-0.11 0.121-0.082v-0.641c0.105-0.266 0.375-0.293 0.801-0.078 0.558 0.371 0.89 0.613 1 0.719l0.519 0.679-0.519-0.878-0.961-0.762-0.082-0.078c-0.106-0.055-0.293-0.082-0.559-0.082l-0.437 0.043c-0.11 0.05-0.215 0.25-0.321 0.597-0.187-0.078-0.293-0.078-0.32 0z" inkscape:connector-curvature="0"/>
      <path id="path26" style="fill-rule:evenodd;fill:#b89e36" d="m16.09 29.5v1.117c0.215-0.293 0.336-0.481 0.363-0.559v-1.359l-0.121-0.84v-0.281c-0.055 0.215-0.121 0.348-0.199 0.398-0.11-0.078-0.215-0.226-0.321-0.437-0.132-0.215-0.242-0.36-0.32-0.442-0.375-0.425-0.746-0.597-1.121-0.519-0.055 0-0.133 0.027-0.238 0.082-0.028 0.051-0.055 0.09-0.082 0.117-0.028 0.055-0.067 0.067-0.121 0.039-0.024-0.133-0.094-0.183-0.2-0.156-0.21 0.105-0.371 0.172-0.48 0.199l-0.078 0.039h0.039c0.082 0 0.254-0.015 0.519-0.039 0.055 0 0.106 0.078 0.161 0.238 0.054 0.133 0.105 0.215 0.16 0.243 0.027-0.082 0.066-0.227 0.121-0.442 0.051-0.16 0.144-0.254 0.281-0.281 0.16-0.027 0.305 0.027 0.438 0.16 0.054 0.027 0.254 0.266 0.601 0.723l0.399 0.918c0.105 0.293 0.171 0.652 0.199 1.082z" inkscape:connector-curvature="0"/>
      <path id="path28" style="fill-rule:evenodd;fill:#b89e36" d="m21.57 27.179 0.16-0.242v-0.359c-0.027-0.375-0.304-0.586-0.839-0.641-0.293 0-0.504-0.027-0.641-0.078l-0.719-0.199c-0.187-0.055-0.386-0.055-0.601 0-0.16 0.156-0.293 0.238-0.399 0.238-0.051 0.321 0.082 0.574 0.399 0.762 0.187 0.105 0.347 0.277 0.48 0.519 0.242 0.348 0.336 0.692 0.281 1.04 0.055 0.05 0.121 0.066 0.2 0.039 0.027-0.399-0.079-0.758-0.321-1.079-0.238-0.242-0.386-0.429-0.437-0.562l-0.082-0.16c0-0.266 0.027-0.438 0.082-0.52 0.051-0.133 0.144-0.199 0.277-0.199h0.082l-0.039-0.039c0.184-0.027 0.492 0.078 0.918 0.32l0.199 0.039h0.321l0.199-0.039c0.109 0.024 0.187 0.145 0.242 0.36 0.027 0.027 0.106 0.293 0.238 0.8z" inkscape:connector-curvature="0"/>
      <path id="path30" style="fill-rule:evenodd;fill:#b89e36" d="m12.25 26.898c0.055 0.238 0.082 0.602 0.082 1.078l0.121-0.476c0.024-0.215-0.015-0.508-0.121-0.883l-0.16-0.32-0.039 0.242 0.117 0.359z" inkscape:connector-curvature="0"/>
      <path id="path32" style="fill-rule:evenodd;fill:#a48e37" d="m12.211 28.418c0.133-0.133 0.215-0.282 0.242-0.442l0.117-0.519v-0.199l-0.238 0.8v-0.082c-0.055 0.188-0.16 0.364-0.32 0.524l-0.082 0.078v0.082l-0.118 0.156c0.09-0.113 0.223-0.246 0.399-0.398z" inkscape:connector-curvature="0"/>
      <path id="path34" style="fill-rule:evenodd;fill:#a48e37" d="m12.332 28.058 0.238-0.8-0.039-0.481c-0.027-0.183-0.082-0.465-0.16-0.84l-0.199-0.121v0.481l0.16 0.32c0.106 0.375 0.148 0.668 0.121 0.883l-0.121 0.476v0.082z" inkscape:connector-curvature="0"/>
      <path id="path36" style="fill-rule:evenodd;fill:#a48e37" d="m19.012 27.219 0.519 0.878c0.055 0.082 0.106 0.122 0.16 0.122 0.055-0.348-0.039-0.696-0.281-1.04-0.133-0.242-0.293-0.414-0.48-0.519-0.317-0.188-0.45-0.441-0.399-0.762 0.106 0 0.239-0.082 0.399-0.238 0.215-0.055 0.414-0.055 0.601 0l0.719 0.199c0.137 0.051 0.348 0.078 0.641 0.078 0.535 0.055 0.812 0.266 0.839 0.641v0.359l0.243-0.558c-0.028-0.055-0.176-0.176-0.442-0.36l-0.32-0.203h-0.481c-0.21 0.028-0.332 0-0.359-0.078l0.082-0.039c-0.16 0-0.269-0.027-0.32-0.082l-0.242-0.16c-0.266-0.16-0.653-0.211-1.161-0.16-0.16 0-0.25 0.015-0.277 0.043 0 0.105-0.015 0.183-0.043 0.238l-0.039 0.121-0.16 0.117-0.039 0.082c0 0.028 0.105 0.149 0.32 0.36l0.438 0.558 0.043 0.063c-0.063-0.086-0.141-0.16-0.243-0.219-0.16-0.109-0.292-0.188-0.398-0.242l-0.402-0.321c-0.106-0.078-0.266-0.121-0.477-0.121-0.43 0-0.668 0.028-0.723 0.082 0.028 0.239 0 0.399-0.078 0.481-0.187-0.188-0.308-0.254-0.359-0.199v0.32l0.039 0.277c0.027-0.078 0.133-0.078 0.32 0 0.106-0.347 0.211-0.547 0.321-0.597l0.437-0.043c0.27 0 0.453 0.027 0.563 0.082l0.078 0.078 0.961 0.762z" inkscape:connector-curvature="0"/>
      <path id="path38" style="fill-rule:evenodd;fill:#a48e37" d="m13.051 26.859v0.039h0.121l0.078-0.039c0.109-0.027 0.27-0.094 0.48-0.199 0.106-0.027 0.176 0.023 0.2 0.156 0.054 0.028 0.093 0.016 0.121-0.039 0.027-0.027 0.054-0.066 0.082-0.117l0.238-0.082c0.399-0.078 0.785 0.094 1.16 0.519 0.082 0.082 0.188 0.227 0.321 0.442 0.105 0.211 0.214 0.359 0.32 0.437 0.16-0.105 0.238-0.238 0.238-0.398-0.32-0.051-0.492-0.121-0.519-0.199 0.027-0.106 0-0.188-0.079-0.243l-0.242-0.199-0.16-0.32c-0.183-0.211-0.492-0.293-0.918-0.238-0.293 0-0.453 0.078-0.48 0.238h-0.121c0-0.211-0.106-0.211-0.321 0-0.05 0.055-0.226 0.133-0.519 0.242z" inkscape:connector-curvature="0"/>
      <path id="path40" style="fill-rule:evenodd;fill:#7e6c2d" d="m12.57 27.457 0.082-0.238c0.106-0.161 0.211-0.254 0.321-0.282l0.078-0.039c-0.078-0.054-0.172-0.054-0.281 0-0.051 0.028-0.106 0.121-0.157 0.281l-0.043 0.079v0.199z" inkscape:connector-curvature="0"/>
      <path id="path42" style="fill-rule:evenodd;fill:#7e6c2d" d="m12.531 26.777 0.039 0.481 0.039-0.079c0.055-0.16 0.11-0.253 0.161-0.281 0.105-0.054 0.199-0.054 0.281 0v-0.039c0.293-0.109 0.465-0.187 0.519-0.242 0.215-0.211 0.321-0.211 0.321 0h0.121c0.023-0.16 0.183-0.238 0.48-0.238 0.426-0.055 0.731 0.027 0.918 0.238l0.16 0.32 0.2 0.199c0.347 0.297 0.535 0.442 0.562 0.442v-0.641l-0.043-0.277v-0.32c0.055-0.055 0.176 0.011 0.363 0.199 0.078-0.082 0.106-0.242 0.078-0.481 0.055-0.054 0.293-0.082 0.719-0.082 0.215 0 0.375 0.043 0.481 0.121l0.402 0.321c0.106 0.054 0.238 0.133 0.398 0.242 0.102 0.059 0.18 0.133 0.239 0.219l-0.039-0.063-0.438-0.558c-0.215-0.215-0.32-0.332-0.32-0.36l0.039-0.082 0.16-0.117 0.039-0.121c0.028-0.051 0.043-0.133 0.043-0.238 0.024-0.028 0.117-0.043 0.277-0.043 0.508-0.051 0.895 0 1.161 0.16l0.242 0.16c0.051 0.055 0.16 0.082 0.32 0.082l-0.082 0.039c0.027 0.133 0.309 0.16 0.84 0.078l0.32 0.203c0.266 0.184 0.414 0.305 0.442 0.36l-0.043-0.321c-0.078-0.242-0.383-0.359-0.918-0.359-0.668-0.027-1.36-0.402-2.082-1.121-0.211-0.215-0.344-0.387-0.399-0.52l-4.879 1.039-1.48 0.563v0.156l0.199 0.121c0.082 0.375 0.133 0.653 0.16 0.84z" inkscape:connector-curvature="0"/>
      <path id="path44" style="fill-rule:evenodd;fill:#d8bc4b" d="m11.25 29.898-0.039-0.16c-0.188-0.055-0.293-0.078-0.32-0.078l0.121-0.082-0.36-0.121c-0.265-0.078-0.402-0.16-0.402-0.238 0-0.106 0.066-0.188 0.203-0.243 0.051-0.023 0.145-0.05 0.277-0.078l0.602-0.48c0.215-0.133 0.332-0.282 0.359-0.442l-0.078 0.121c-0.187 0.188-0.468 0.375-0.843 0.563-0.614 0.211-0.946 0.344-1 0.398-0.133 0.106 0.054 0.293 0.562 0.559 0.133 0.055 0.332 0.094 0.598 0.121 0.16 0.027 0.269 0.078 0.32 0.16z" inkscape:connector-curvature="0"/>
      <path id="path46" style="fill-rule:evenodd;fill:#d8bc4b" d="m12.973 30.976-0.481-0.117c-0.535-0.265-0.746-0.562-0.64-0.883 0.078-0.16 0.105-0.265 0.078-0.316l-0.078-0.16c-0.055-0.137 0.027-0.387 0.238-0.762l-0.399 0.281c-0.054 0.321-0.132 0.532-0.238 0.641l-0.121 0.199v0.238l-0.039 0.082c0 0.239 0.105 0.465 0.32 0.68 0.317 0.293 0.692 0.492 1.117 0.598 0.161 0.054 0.641 0.148 1.442 0.281 0.48 0.078 0.773 0.106 0.879 0.078 0.105 0 0.254-0.039 0.441-0.117-0.347 0-0.586-0.039-0.722-0.121-0.133-0.16-0.25-0.254-0.36-0.281-0.238 0.027-0.398 0.043-0.48 0.043h-0.317l-0.64-0.364z" inkscape:connector-curvature="0"/>
      <path id="path48" style="fill-rule:evenodd;fill:#d8bc4b" d="m16.652 31.34c-0.16 0-0.265 0.039-0.32 0.117l0.16 0.043 0.961-0.442v-0.359c0-0.402-0.027-0.68-0.082-0.84l-0.359-0.723c0.027 0.481 0 1.028-0.082 1.641 0 0.133-0.012 0.242-0.039 0.32-0.028 0.082-0.106 0.161-0.239 0.243z" inkscape:connector-curvature="0"/>
      <path id="path50" style="fill-rule:evenodd;fill:#d8bc4b" d="m17.891 31.058c0.214-0.105 0.574-0.214 1.082-0.32l0.199-0.039 0.078-0.039c0.453-0.215 0.855-0.457 1.203-0.723 0.16-0.133 0.277-0.265 0.359-0.398l-3.359 1.519v0.039c0.051 0.133 0.199 0.122 0.438-0.039z" inkscape:connector-curvature="0"/>
      <path id="path52" style="fill-rule:evenodd;fill:#d8bc4b" d="m20.973 27.219 0.039 0.32 0.16-0.16c0.105-0.082 0.187-0.227 0.238-0.442v-0.039l-0.039-0.398-0.039-0.043c-0.082-0.078-0.16-0.117-0.242-0.117-0.32 0-0.559-0.028-0.719-0.082-0.293-0.188-0.492-0.266-0.601-0.239 0.16 0.051 0.375 0.211 0.64 0.481 0.188 0.16 0.375 0.398 0.563 0.719z" inkscape:connector-curvature="0"/>
      <path id="path54" style="fill-rule:evenodd;fill:#7b6029" d="m19.051 23.859c-1.813-2.64-4.133-3.043-6.961-1.199l-0.977 0.539c0.004 0.105-0.031 0.434-0.101 0.98-0.082 0.532 0.066 0.946 0.441 1.239 0.16 0.105 0.586 0.332 1.277 0.679 0.454 0.215 1.106 0.282 1.961 0.2 0.774-0.051 1.508-0.211 2.2-0.481 0.613-0.238 1.121-0.558 1.519-0.957 0.375-0.348 0.586-0.68 0.641-1z" inkscape:connector-curvature="0"/>
      <path id="path56" style="fill-rule:evenodd;fill:#9b7e44" d="m14.691 26.297c0.774-0.051 1.508-0.211 2.2-0.481l0.082-0.039c-0.375 0.133-0.801 0.227-1.282 0.281-0.078 0-0.441 0.067-1.078 0.2-0.453 0.082-0.828 0.082-1.121 0-0.215-0.055-0.601-0.293-1.16-0.719-0.375 0.051-0.707-0.082-1-0.403l-0.242-0.32-0.039-0.117c0.082 0.348 0.281 0.641 0.601 0.879 0.106 0.055 0.465 0.226 1.078 0.519 0.454 0.215 1.106 0.282 1.961 0.2z" inkscape:connector-curvature="0"/>
      <path id="path58" style="fill-rule:evenodd;fill:#614c20" d="m18.012 25.219c0.613-0.454 0.961-0.907 1.039-1.36-1.813-2.64-4.133-3.043-6.961-1.199l-1 0.559-0.078 0.96c-0.028 0.184-0.016 0.399 0.039 0.637 0.453 0.16 0.773 0.297 0.961 0.403 0.293 0.16 0.8 0.281 1.519 0.359 0.828 0.082 1.508 0.039 2.039-0.121 0.828-0.211 1.602-0.492 2.321-0.84 0.32 0.109 0.359 0.309 0.121 0.602z" inkscape:connector-curvature="0"/>
      <path id="path60" style="fill-rule:evenodd;fill:#7b6029" d="m13.852 26.379-0.282-0.641c-0.023-0.133 0-0.293 0.082-0.48-0.32-0.079-0.574-0.106-0.761-0.079-0.426-0.027-0.692 0-0.801 0.079-0.078 0.054-0.133 0.175-0.16 0.359-0.024 0.187-0.024 0.348 0 0.48 0.027 0.133 0.254 0.321 0.683 0.563 0.184 0.105 0.399 0.144 0.637 0.117 0.16-0.051 0.363-0.187 0.602-0.398z" inkscape:connector-curvature="0"/>
      <path id="path62" style="fill-rule:evenodd;fill:#614c20" d="m13.852 26.379-0.282-0.641c-0.023-0.133 0-0.293 0.082-0.48-0.32-0.079-0.574-0.106-0.761-0.079-0.426-0.027-0.692 0-0.801 0.079l-0.16 0.32c0.269-0.133 0.55-0.121 0.84 0.039 0.109 0.027 0.214 0.148 0.32 0.359 0.109 0.137 0.109 0.282 0 0.442l0.242 0.039c0.027 0.054 0.012 0.16-0.039 0.32 0.16-0.051 0.344-0.187 0.559-0.398z" inkscape:connector-curvature="0"/>
      <path id="path64" style="fill-rule:evenodd;fill:#9b7e44" d="m13.25 26.777 0.043-0.039c-0.188-0.027-0.32-0.066-0.402-0.121-0.055-0.078-0.094-0.133-0.121-0.16-0.133-0.051-0.211-0.094-0.239-0.117 0.106 0 0.172-0.043 0.199-0.121-0.32 0-0.546-0.055-0.679-0.161l-0.16-0.16 0.039 0.199c0.027 0.133 0.254 0.321 0.683 0.563 0.184 0.105 0.399 0.144 0.637 0.117z" inkscape:connector-curvature="0"/>
      <path id="path66" style="fill-rule:evenodd;fill:#cfb136" d="m21.051 20.578c1.469-2.559 2.242-5.078 2.32-7.559 0.027-0.906 0.52-2.429 1.481-4.562 1.039-2.344 1.601-3.707 1.679-4.078 0.293-1.575-0.625-2.36-2.761-2.36-0.477 0-1.571-0.293-3.278-0.883-1.789-0.636-3.32-1-4.601-1.078-1.707-0.105-3.653-0.066-5.84 0.121-2.188 0.184-3.813 0.438-4.879 0.758-1.414 0.426-2.949 1.149-4.602 2.16-0.613 0.348-0.718 1.055-0.32 2.122 0.562 1.093 0.883 1.746 0.961 1.96 0.105 0.239 0.176 0.813 0.199 1.719 0.055 1.629 0.094 2.641 0.121 3.039 0.055 1.282 0.239 2.336 0.559 3.16 0.375 1.016 1.121 2.336 2.242 3.961 1.012 1.493 2.504 2.907 4.48 4.239 1.547 1.043 2.68 1.64 3.399 1.8 3.734 0.747 6.68-0.757 8.84-4.519z" inkscape:connector-curvature="0"/>
      <path id="path68" style="fill-rule:evenodd;fill:#c4a93a" d="m13.73 24.976v-0.16l-0.16-0.117-0.039 0.039-0.199-0.238-0.082-0.043-0.199-0.438c-0.504-0.613-0.985-0.867-1.438-0.761-0.082 0.402 0.145 0.867 0.68 1.402v-0.121l-0.363-0.602c0.32-0.078 0.656 0.028 1 0.321 0.187 0.16 0.453 0.402 0.8 0.718z" inkscape:connector-curvature="0"/>
      <path id="path70" style="fill-rule:evenodd;fill:#c4a93a" d="m3.211 6.379c-0.531 0.16-1.16 0.625-1.879 1.398 0.027 0.215 0.066 1.266 0.121 3.16 0.16-0.613 0.449-1.371 0.879-2.277 0.106-0.215 0.305-0.602 0.598-1.16 0.242-0.508 0.336-0.883 0.281-1.121z" inkscape:connector-curvature="0"/>
      <path id="path72" style="fill-rule:evenodd;fill:#c4a93a" d="m14.25 23.379c0.109 0.187 0.203 0.453 0.281 0.8 0.055 0.372 0.121 0.637 0.199 0.797 0.215 0.028 0.442-0.211 0.68-0.718 0.27-0.586 0.469-0.918 0.602-1 0 0.668-0.028 1.093-0.082 1.281 0.375-0.028 0.722-0.348 1.043-0.961 0.425-0.828 0.785-1.426 1.078-1.801 0.402-0.453 0.64-1.012 0.719-1.68 0.082-0.746-0.133-1.281-0.637-1.597 0.426-0.028 0.679-0.227 0.758-0.602 0.054-0.215 0.066-0.586 0.039-1.121 0.027-0.558 0.175-1.344 0.441-2.359 0.055-0.293 0.133-0.746 0.242-1.36 0.078-0.535 0.106-0.988 0.078-1.359-0.027-0.426-0.16-0.828-0.398-1.199-0.297-0.43-0.523-0.774-0.68-1.043 0.106 0 0.426 0.054 0.957 0.16 0.508 0.082 0.801 0.094 0.883 0.043 0.211-0.16 0.277-0.457 0.199-0.883-0.054-0.32-0.16-0.598-0.32-0.84l-0.48-0.758c0-0.027 0.199-0.308 0.601-0.839 0.317-0.481 0.613-1.043 0.879-1.68-0.242 0-0.547 0.144-0.922 0.437-0.371 0.321-0.691 0.481-0.957 0.481-0.43 0-0.707-0.121-0.84-0.359-0.109-0.161-0.226-0.481-0.363-0.961-0.238-0.719-0.438-1.188-0.598-1.399-0.214-0.348-0.441-0.562-0.679-0.64-0.321-0.055-0.602-0.122-0.84-0.2-2.16-0.722-4.563-1.082-7.203-1.082-0.532 0-1.078 0.055-1.637 0.16-0.641 0.161-1.148 0.282-1.523 0.36-0.614 0.054-1.051 0.137-1.317 0.242-0.137 0.051-0.363 0.172-0.683 0.359-0.293 0.215-0.532 0.348-0.719 0.399-0.961 0.32-1.813 0.855-2.559 1.601-0.082 0.055-0.226 0.239-0.441 0.559l0.199 0.602c-0.027-0.426 0.016-0.719 0.121-0.879 0.106-0.137 0.359-0.309 0.762-0.524 0.238-0.105 0.613-0.344 1.117-0.719 0.43-0.293 0.816-0.48 1.16-0.558 2-0.481 3.402-0.828 4.203-1.039 1.199-0.321 2.532-0.387 4-0.203 0.985 0.109 1.559 0.187 1.719 0.242 0.453 0.187 0.801 0.597 1.039 1.238 0.453 1.281 1.149 2.293 2.082 3.039 0.426 0.348 0.692 0.735 0.797 1.16 0.082 0.27 0.094 0.762 0.043 1.481-0.215 0.027-0.789-0.012-1.723-0.117-0.718-0.055-1.277-0.016-1.679 0.117 1.093 0.293 1.855 0.547 2.281 0.762 0.824 0.453 1.281 1.039 1.359 1.757 0.028 0.27-0.027 0.551-0.16 0.84-0.133 0.32-0.226 0.574-0.281 0.762-0.106 0.48-0.184 1.105-0.238 1.879l-0.122 1.883c-0.078 0.636-0.117 1.117-0.117 1.437-0.027 0.508 0.039 0.961 0.199 1.359 0.372 0.59 0.598 1.043 0.68 1.364 0.133 0.504 0.106 1.133-0.082 1.879-0.183 0.718-0.465 1.293-0.84 1.718 0.028-0.132 0.16-0.546 0.403-1.238 0.16-0.48 0.226-0.922 0.199-1.32-0.348 0.027-0.652 0.32-0.922 0.879-0.238 0.64-0.438 1.066-0.598 1.281v0.039l-0.402 0.762-0.277 0.078c-0.082-0.16-0.121-0.414-0.121-0.762-0.133-0.316-0.266-0.547-0.399-0.68l-0.203 0.243z" inkscape:connector-curvature="0"/>
      <path id="path74" style="fill-rule:evenodd;fill:#b89e36" d="m13.852 24.179c0.078-0.136 0.132-0.187 0.16-0.16 0.054-0.293 0.133-0.508 0.238-0.64h-0.398l-0.122 1.437 0.04 0.043 0.082-0.199c-0.055-0.215-0.055-0.375 0-0.481z" inkscape:connector-curvature="0"/>
      <path id="path76" style="fill-rule:evenodd;fill:#b89e36" d="m19.211 22.578c0.105-0.133 0.215-0.375 0.32-0.719 0.055-0.055 0.215-0.254 0.481-0.601 0.215-0.266 0.347-0.465 0.398-0.598 0.11-0.27 0.11-0.641 0-1.121-0.133-0.641-0.199-0.973-0.199-1 0-0.348 0.121-0.762 0.359-1.242 0.133-0.293 0.336-0.692 0.602-1.2 0.105-0.214 0.305-0.586 0.598-1.121 0.242-0.504 0.32-0.906 0.242-1.199-0.028-0.078-0.242-0.453-0.641-1.117-0.16-0.242 0.027-0.563 0.559-0.961 0.429-0.293 0.695-0.563 0.8-0.801 0.133-0.293 0.106-0.668-0.078-1.121-0.265-0.719-0.894-1.359-1.882-1.918 0.109 0 0.617 0.039 1.523 0.117 0.613 0.055 1.039-0.023 1.277-0.238 0.266-0.215 0.426-0.508 0.481-0.879 0.054-0.215 0.105-0.535 0.16-0.961 0.027-0.105 0.16-0.371 0.402-0.801 0.184-0.32 0.266-0.597 0.239-0.839-0.028-0.426-0.332-0.774-0.922-1.039-0.532-0.243-1.051-0.321-1.559-0.243-0.133 0.028-0.359 0.121-0.68 0.282-0.293 0.16-0.535 0.214-0.718 0.16-0.321-0.055-0.52-0.266-0.602-0.641-0.105-0.453-0.187-0.707-0.238-0.758-0.137-0.136-0.321-0.215-0.563-0.242-0.265 0.027-0.48 0.027-0.64 0-0.879-0.183-1.571-0.293-2.078-0.32-0.559 0-1.239-0.106-2.04-0.321-1.042-0.292-1.679-0.464-1.921-0.519-1.012-0.16-2.852-0.066-5.52 0.281l-1.758 0.281-1.562 0.52c-0.586 0.453-1.172 0.785-1.758 1-0.668 0.266-1.176 0.414-1.523 0.437l-0.68 0.524c-0.106 0.266-0.117 0.586-0.039 0.957 0.215-0.32 0.359-0.504 0.441-0.559 0.746-0.746 1.598-1.281 2.559-1.601 0.187-0.051 0.426-0.184 0.719-0.399 0.32-0.187 0.546-0.308 0.683-0.359 0.266-0.105 0.703-0.188 1.317-0.242 0.375-0.078 0.882-0.199 1.523-0.36 0.559-0.105 1.105-0.16 1.637-0.16 2.64 0 5.043 0.36 7.203 1.082 0.238 0.078 0.519 0.145 0.84 0.2 0.238 0.078 0.465 0.292 0.679 0.64 0.16 0.211 0.36 0.68 0.598 1.399 0.137 0.48 0.254 0.8 0.363 0.961 0.133 0.238 0.41 0.359 0.84 0.359 0.266 0 0.586-0.16 0.957-0.481 0.375-0.293 0.68-0.437 0.922-0.437-0.266 0.637-0.562 1.199-0.879 1.68-0.402 0.531-0.601 0.812-0.601 0.839l0.48 0.758c0.16 0.242 0.266 0.52 0.32 0.84 0.078 0.426 0.012 0.723-0.199 0.883-0.082 0.051-0.375 0.039-0.883-0.043-0.531-0.106-0.851-0.16-0.957-0.16 0.157 0.269 0.383 0.613 0.68 1.043 0.238 0.371 0.371 0.773 0.398 1.199 0.028 0.371 0 0.828-0.078 1.359-0.109 0.614-0.187 1.067-0.242 1.36-0.266 1.015-0.414 1.801-0.441 2.359 0.027 0.535 0.015 0.906-0.039 1.121-0.079 0.375-0.332 0.574-0.758 0.602 0.504 0.316 0.719 0.851 0.637 1.597-0.079 0.668-0.317 1.227-0.719 1.68-0.293 0.375-0.653 0.973-1.078 1.801-0.321 0.613-0.668 0.933-1.043 0.961 0.054-0.188 0.082-0.613 0.082-1.281-0.133 0.082-0.332 0.414-0.602 1-0.238 0.507-0.465 0.746-0.68 0.718-0.078-0.16-0.144-0.425-0.199-0.797-0.078-0.347-0.172-0.613-0.281-0.8-0.105 0.132-0.184 0.347-0.238 0.64 0.105 0 0.16 0.227 0.16 0.68 0.238 0.32 0.519 0.387 0.84 0.199 0.16-0.105 0.414-0.359 0.758-0.762 0 0.321-0.024 0.563-0.079 0.723 0.536-0.265 1.254-0.773 2.161-1.519 0.078-0.055 0.32-0.161 0.718-0.321 0.293-0.136 0.508-0.281 0.641-0.441z" inkscape:connector-curvature="0"/>
      <path id="path78" style="fill-rule:evenodd;fill:#b89e36" d="m13.652 25.258h0.078c0.133-0.028 0.243-0.122 0.321-0.282l-0.199-0.316-0.082 0.199-0.04-0.043v0.16c-0.343-0.316-0.613-0.558-0.8-0.718-0.344-0.293-0.68-0.399-1-0.321l0.363 0.602-0.043-0.082 0.121 0.082-0.078-0.32 0.32 0.441c0.559 0.238 0.907 0.437 1.039 0.598z" inkscape:connector-curvature="0"/>
      <path id="path80" style="fill-rule:evenodd;fill:#a48e37" d="m0.09 3.66 0.68-0.524h-0.239c-0.215 0.11-0.359 0.282-0.441 0.524z" inkscape:connector-curvature="0"/>
      <path id="path82" style="fill-rule:evenodd;fill:#a48e37" d="m4.293 1.539-0.242 0.16 1.562-0.52-0.64 0.079c-0.243 0.027-0.469 0.121-0.68 0.281z" inkscape:connector-curvature="0"/>
      <path id="path84" style="fill-rule:evenodd;fill:#a48e37" d="m21.652 19.379 0.078-0.16 0.04-0.04c-0.426 0.079-0.571-0.253-0.438-1 0.078-0.695 0.215-1.136 0.398-1.32 0.907-1.043 1.375-1.894 1.403-2.562 0.051-0.586 0.039-1.106-0.043-1.559-0.024-0.105-0.078-0.254-0.16-0.441-0.024-0.133 0.054-0.344 0.242-0.637l1.441-3.481c0.266-0.562 0.438-1.16 0.52-1.8 0-0.16-0.016-0.414-0.043-0.762 0.055-0.106 0.176-0.254 0.363-0.438 0.184-0.214 0.305-0.375 0.359-0.48 0.133-0.348 0.161-0.68 0.079-1-0.079-0.48-0.2-0.816-0.36-1-0.215-0.266-0.535-0.402-0.961-0.402-0.48-0.051-0.918-0.039-1.32 0.043-0.637 0.183-1.105 0.25-1.398 0.199-0.239-0.028-0.547-0.16-0.922-0.403-0.477-0.292-0.785-0.464-0.918-0.519-0.641-0.211-1.106-0.398-1.399-0.559-0.297-0.187-0.523-0.32-0.683-0.398-0.239-0.137-0.477-0.203-0.719-0.203-1.281-0.051-2.281-0.145-3-0.278l-0.961-0.16-2.879 0.117-0.16 0.043c-1.012 0.293-1.961 0.532-2.84 0.719 2.668-0.347 4.508-0.441 5.52-0.281 0.242 0.055 0.879 0.227 1.921 0.519 0.801 0.215 1.481 0.321 2.04 0.321 0.507 0.027 1.199 0.137 2.078 0.32 0.16 0.027 0.375 0.027 0.64 0 0.242 0.027 0.426 0.106 0.563 0.242 0.051 0.051 0.133 0.305 0.238 0.758 0.082 0.375 0.281 0.586 0.602 0.641 0.183 0.054 0.425 0 0.718-0.16 0.321-0.161 0.547-0.254 0.68-0.282 0.508-0.078 1.027 0 1.559 0.243 0.59 0.265 0.894 0.613 0.922 1.039 0.027 0.242-0.055 0.519-0.239 0.839-0.242 0.43-0.375 0.696-0.402 0.801-0.051 0.426-0.106 0.746-0.16 0.961-0.055 0.371-0.215 0.664-0.481 0.879-0.238 0.215-0.664 0.293-1.277 0.238-0.906-0.078-1.414-0.117-1.523-0.117 0.988 0.559 1.617 1.199 1.882 1.918 0.184 0.453 0.211 0.828 0.078 1.121-0.105 0.238-0.371 0.508-0.8 0.801-0.532 0.398-0.719 0.719-0.559 0.961 0.399 0.664 0.613 1.039 0.641 1.117 0.078 0.293 0 0.695-0.242 1.199-0.293 0.535-0.493 0.907-0.598 1.121-0.266 0.508-0.469 0.907-0.602 1.2-0.238 0.48-0.359 0.894-0.359 1.242 0 0.027 0.066 0.359 0.199 1 0.11 0.48 0.11 0.851 0 1.121-0.051 0.133-0.183 0.332-0.398 0.598-0.266 0.347-0.426 0.546-0.481 0.601-0.105 0.344-0.215 0.586-0.32 0.719-0.133 0.16-0.348 0.305-0.641 0.441-0.398 0.16-0.64 0.266-0.718 0.321-0.934 0.746-1.653 1.25-2.161 1.519 0.055-0.16 0.067-0.402 0.039-0.723-0.343 0.403-0.597 0.657-0.757 0.762-0.348 0.188-0.641 0.121-0.883-0.199l-0.078 0.52v0.039l-0.039-0.282c-0.082 0.16-0.176 0.254-0.282 0.282 0.106 0.003 0.215 0.003 0.321 0 1.734-0.016 3.281-0.606 4.64-1.758 1.2-0.989 2.2-2.364 3-4.121z" inkscape:connector-curvature="0"/>
      <path id="path86" style="fill-rule:evenodd;fill:#a48e37" d="m12.613 24.66 0.36 0.559 0.679 0.039c-0.132-0.161-0.48-0.36-1.039-0.598z" inkscape:connector-curvature="0"/>
      <path id="path88" style="fill-rule:evenodd;fill:#d8bc4b" d="m11.652 24.019c-0.16-0.347-0.453-0.906-0.882-1.679-0.079-0.215-0.172-0.641-0.278-1.282-0.105-0.586-0.242-1-0.402-1.242-0.16-0.265-0.492-0.398-1-0.398-0.586 0.027-1 0.054-1.238 0.082-0.536 0.133-0.934 0.199-1.2 0.199-0.265 0-0.574-0.133-0.922-0.402-0.398-0.321-0.691-0.493-0.878-0.52 0.027 0.746 0.546 1.629 1.558 2.641 0.481 0.426 1.055 0.894 1.723 1.398 0.371 0.188 0.972 0.442 1.797 0.762l1.64 0.922 0.082-0.481z" inkscape:connector-curvature="0"/>
      <path id="path90" style="fill-rule:evenodd;fill:#d8bc4b" d="m13.57 24.699c0.11-0.16 0.121-0.629 0.043-1.402-0.054-0.481-0.109-0.786-0.16-0.918-0.137-0.266-0.375-0.36-0.723-0.282-0.027 0.747 0.082 1.387 0.321 1.922l0.519 0.68z" inkscape:connector-curvature="0"/>
      <path id="path92" style="fill-rule:evenodd;fill:#d8bc4b" d="m13.051 24.019 0.199 0.438 0.082 0.043 0.199 0.238 0.039-0.039-0.519-0.68z" inkscape:connector-curvature="0"/>
      <path id="path94" style="fill-rule:evenodd;fill:#d8bc4b" d="m14.852 23.816c0.105 0.215 0.199 0.32 0.281 0.32 0.133 0.028 0.305-0.105 0.519-0.398 0.106-0.375 0.16-0.668 0.16-0.879 0.051-0.402 0.067-0.668 0.04-0.801-0.028-0.265-0.172-0.32-0.442-0.16-0.371 0.238-0.558 0.879-0.558 1.918z" inkscape:connector-curvature="0"/>
      <path id="path96" style="fill-rule:evenodd;fill:#d8bc4b" d="m14.973 24.578 0.277-0.078 0.402-0.762c-0.214 0.293-0.386 0.426-0.519 0.398-0.082 0-0.176-0.105-0.281-0.32 0 0.348 0.039 0.602 0.121 0.762z" inkscape:connector-curvature="0"/>
      <path id="path98" style="fill-rule:evenodd;fill:#d8bc4b" d="m2.77 16.578c0.027-0.586 0.242-1.145 0.64-1.68 0.11-0.187 0.188-0.265 0.242-0.238h0.321l1.199-0.082c0.531-0.078 1.051-0.281 1.558-0.602 0.293-0.183 0.75-0.543 1.36-1.078 0.348-0.32 0.695-0.785 1.043-1.398 0.398-0.75 0.691-1.242 0.879-1.481 0.238-0.32 0.601-0.535 1.078-0.64 0.64-0.188 1.027-0.321 1.16-0.403-0.504-0.293-0.812-0.476-0.918-0.558-0.266-0.188-0.441-0.453-0.52-0.801-0.132-0.453-0.226-0.734-0.281-0.84-0.16-0.266-0.386-0.492-0.679-0.68-0.747-0.371-1.84-0.464-3.282-0.281-0.48 0.055-0.84 0.149-1.078 0.281-0.215 0.133-0.453 0.387-0.722 0.762-0.157 0.184-0.411 0.426-0.758 0.719-0.348 0.32-0.602 0.574-0.762 0.762-0.027 0.05-0.438 0.703-1.238 1.957l-0.52 0.761 0.039 0.879c0.055 0.907 0.149 1.668 0.281 2.282 0.184 0.718 0.504 1.507 0.958 2.359z" inkscape:connector-curvature="0"/>
      <path id="path100" style="fill-rule:evenodd;fill:#d8bc4b" d="m16.613 10.578c-0.136-0.586-0.734-0.934-1.801-1.039-0.48-0.055-1.281-0.039-2.402 0.039-0.023 0.187 0.215 0.453 0.723 0.801 0.637 0.425 0.972 0.652 1 0.679 0.984 1.145 1.332 2.039 1.039 2.68l0.441-0.16c0.453 0.082 0.774-0.32 0.957-1.199 0.133-0.719 0.149-1.321 0.043-1.801z" inkscape:connector-curvature="0"/>
      <path id="path102" style="fill-rule:evenodd;fill:#d8bc4b" d="m9.129 2.418c0.402-0.133 0.949-0.254 1.641-0.36 0.773-0.082 1.32-0.175 1.64-0.281-0.508-0.051-0.945-0.117-1.32-0.199-0.266-0.051-0.68-0.051-1.238 0-0.614 0.082-1.043 0.133-1.282 0.16-0.668 0.027-1.121 0.066-1.359 0.121-0.348 0.051-0.719 0.211-1.121 0.481-0.188 0.132-0.465 0.265-0.84 0.398-0.453 0.188-0.734 0.305-0.84 0.359-0.508 0.243-1.375 0.84-2.601 1.801-0.45 0.375-0.571 0.629-0.36 0.762 0.137 0.105 0.469 0.25 1 0.437l0.082-0.121c0.133-0.16 0.321-0.293 0.559-0.398 0.133-0.051 0.359-0.133 0.68-0.238 0.882-0.348 1.652-0.75 2.32-1.204l1.082-0.839c0.32-0.211 0.973-0.504 1.957-0.879z" inkscape:connector-curvature="0"/>
      <path id="path104" style="fill-rule:evenodd;fill:#766527" d="m13.852 24.179c-0.055 0.106-0.055 0.266 0 0.481 0.027-0.082 0.078-0.297 0.16-0.641-0.028-0.027-0.082 0.024-0.16 0.16z" inkscape:connector-curvature="0"/>
      <path id="path106" style="fill-rule:evenodd;fill:#766527" d="m14.172 24.699c0-0.453-0.055-0.68-0.16-0.68-0.082 0.344-0.133 0.559-0.16 0.641l0.199 0.316c0.054-0.16 0.066-0.293 0.039-0.398l0.082 0.121z" inkscape:connector-curvature="0"/>
      <path id="path108" style="fill-rule:evenodd;fill:#948031" d="m0.77 3.136c0.347-0.023 0.855-0.171 1.523-0.437 0.586-0.215 1.172-0.547 1.758-1l-0.758 0.32c-1.254 0.481-2.094 0.852-2.523 1.117z" inkscape:connector-curvature="0"/>
      <path id="path110" style="fill-rule:evenodd;fill:#766527" d="m21.73 16.859c-0.187 0.184-0.32 0.625-0.398 1.32-0.137 0.747 0.012 1.079 0.438 1 0.507-1.148 0.906-2.375 1.199-3.679 0.242-1.016 0.375-1.84 0.402-2.481 0.027-0.906 0.52-2.429 1.481-4.562 1.039-2.344 1.597-3.707 1.679-4.078 0.293-1.575-0.629-2.36-2.761-2.36-0.481 0-1.575-0.293-3.278-0.883-1.789-0.636-3.32-1-4.601-1.078l-2.641-0.039 0.961 0.16c0.719 0.133 1.719 0.227 3 0.278 0.238 0 0.48 0.066 0.719 0.203 0.16 0.078 0.386 0.211 0.679 0.398 0.293 0.161 0.762 0.348 1.403 0.559 0.133 0.055 0.437 0.227 0.918 0.519 0.375 0.243 0.679 0.375 0.922 0.403 0.293 0.051 0.757-0.016 1.398-0.199 0.402-0.082 0.84-0.094 1.32-0.043 0.426 0 0.746 0.136 0.961 0.402 0.16 0.184 0.278 0.52 0.36 1 0.078 0.32 0.054 0.652-0.082 1-0.051 0.105-0.172 0.266-0.36 0.48-0.183 0.184-0.304 0.332-0.359 0.438 0.027 0.348 0.039 0.602 0.039 0.762-0.078 0.64-0.25 1.238-0.52 1.8l-1.437 3.481c-0.188 0.293-0.27 0.504-0.242 0.637 0.082 0.187 0.132 0.336 0.16 0.441 0.082 0.453 0.094 0.973 0.039 1.559-0.024 0.668-0.492 1.519-1.399 2.562z" inkscape:connector-curvature="0"/>
      <path id="path112" style="fill-rule:evenodd;fill:#948031" d="m7.371 0.898c0.879-0.187 1.828-0.426 2.84-0.719l0.16-0.043c-2.375 0.188-4.105 0.454-5.199 0.801-1.414 0.426-2.949 1.149-4.602 2.16l-0.039 0.039h0.239c0.429-0.265 1.269-0.636 2.523-1.117l0.758-0.32 0.242-0.16c0.211-0.16 0.437-0.254 0.68-0.281l0.64-0.079c0.504-0.136 0.985-0.214 1.438-0.242l0.32-0.039z" inkscape:connector-curvature="0"/>
      <path id="path114" style="fill-rule:evenodd;fill:#766527" d="m18.332 23.34c-0.16-0.028-0.508 0.183-1.043 0.636l-0.719 0.524c-0.398 0.265-0.785 0.383-1.16 0.359l-0.039-0.16c-0.16 0.133-0.281 0.227-0.359 0.277-0.16 0.137-0.309 0.203-0.442 0.203-0.078-0.054-0.16-0.093-0.238-0.121l-0.242-0.039c-0.078-0.027-0.117-0.093-0.117-0.203 0-0.133-0.016-0.211-0.043-0.238l-0.2 0.238c-0.05 0.11-0.093 0.16-0.117 0.16-0.027-0.023-0.082-0.023-0.16 0-0.269 0.055-0.414 0.082-0.441 0.082-0.055 0-0.188-0.082-0.399-0.242 0.106 0.16 0.09 0.27-0.043 0.32 2.321 0.375 4.321-0.132 6-1.519v-0.039c-0.144 0.023-0.363 0.144-0.66 0.359 0.328-0.254 0.469-0.453 0.422-0.597z" inkscape:connector-curvature="0"/>
      <path id="path116" style="fill-rule:evenodd;fill:#e8ce63" d="m10.172 2.258 0.281-0.079c0.024 0 0.293-0.043 0.797-0.121 0.348-0.027 0.586-0.132 0.723-0.32-0.907-0.426-1.961-0.48-3.161-0.16-0.8 0.187-1.015 0.414-0.64 0.68 0.133 0.105 0.453 0.132 0.961 0.082 0.265-0.028 0.613-0.055 1.039-0.082z" inkscape:connector-curvature="0"/>
      <path id="path118" style="fill-rule:evenodd;fill:#e8ce63" d="m7.012 2.617 0.078-0.078v-0.36c-0.453 0.051-0.719 0.106-0.797 0.161-0.055 0.211 0.012 0.332 0.199 0.359 0.028 0 0.199-0.027 0.52-0.082z" inkscape:connector-curvature="0"/>
      <path id="path120" style="fill-rule:evenodd;fill:#c4a93a" d="m14.051 4.539 0.16-0.281c-0.027-0.293-0.16-0.559-0.399-0.801-0.132-0.133-0.414-0.293-0.839-0.481-0.161-0.105-0.321-0.144-0.481-0.117-0.48 0-0.773-0.015-0.879-0.043v-0.117c-0.16-0.027-0.336-0.016-0.523 0.039-0.238 0.078-0.41 0.133-0.52 0.16l-0.679 0.078c-0.293 0.082-0.774 0.282-1.438 0.602-0.348 0.215-0.535 0.359-0.562 0.441 0.132 0 0.336-0.027 0.601-0.082 0.266-0.054 0.465-0.066 0.598-0.039 0.027 0 0.027 0.012 0 0.039 0.828-0.054 1.64-0.054 2.441 0l0.481 0.082c0.586 0 1 0.039 1.238 0.117 0.188 0.055 0.453 0.188 0.801 0.403z" inkscape:connector-curvature="0"/>
      <path id="path122" style="fill-rule:evenodd;fill:#c4a93a" d="m12.531 2.578v0.039c0.188 0 0.239-0.106 0.16-0.32-0.453-0.078-0.695-0.012-0.722 0.203 0.109 0.051 0.297 0.078 0.562 0.078z" inkscape:connector-curvature="0"/>
      <path id="path124" style="fill-rule:evenodd;fill:#a48e37" d="m8.172 13.258-0.082-1.2c0.722 1.575 1.574 3.172 2.562 4.801-0.507-0.133-0.961-0.387-1.359-0.762-0.535-0.507-0.91-1.453-1.121-2.839zm4.598 3.121-0.079 0.039c-0.238 0.187-0.507 0.32-0.8 0.398-1.387-2.238-2.547-4.449-3.481-6.637l0.16-0.281 0.481-0.601c1.066 2.562 2.308 4.922 3.719 7.082zm0.683-1.282v0.039c-1.23-1.945-2.336-4.066-3.32-6.359l0.48-0.078c0.692 0 1.278 0.227 1.758 0.68 0.481 0.453 0.84 1.144 1.082 2.078l2.359-0.879c-0.347-1.492-0.976-2.602-1.882-3.32-0.934-0.774-2.094-1.122-3.477-1.039-0.32 0-0.723 0.054-1.203 0.16-0.371-1.067-0.625-1.868-0.758-2.403l-1.16 0.282 0.801 2.601-0.762 0.559-0.918-3-0.762 0.121-0.199 0.16c0.344 1.305 0.719 2.52 1.121 3.641l-0.043 0.039c-0.8 1.254-1.039 2.84-0.718 4.757 0.32 1.84 1 3.231 2.039 4.161 1.015 0.882 2.214 1.32 3.601 1.32l0.238-0.039 0.762 1.16h1.399l-0.961-1.32 0.922-0.399 1.199 1.68 1.519-0.16c-0.8-1.016-1.371-1.789-1.718-2.32 0.347-0.426 0.613-0.973 0.8-1.641l-2.199-0.481z" inkscape:connector-curvature="0"/>
      <path id="path126" style="fill-rule:evenodd;fill:#766527" d="m12.453 25.097c0.16 0.082 0.332 0.122 0.52 0.122-0.028-0.133-0.137-0.266-0.321-0.403-0.132-0.531-0.308-0.918-0.519-1.16-0.188-0.211-0.52-0.453-1-0.719-0.297-0.16-0.668-0.238-1.121-0.238l-0.442 0.039c-0.078 0-0.117 0.055-0.117 0.16l0.078 0.199 0.039 0.2c0.028 0.109 0.215 0.226 0.563 0.359 0.183 0.055 0.453 0.215 0.797 0.48l0.601 0.641c0.106 0.242 0.239 0.375 0.399 0.402l0.043 0.04c0.211-0.133 0.371-0.172 0.48-0.122z" inkscape:connector-curvature="0"/>
      <path id="path128" style="fill-rule:evenodd;fill:#766527" d="m13.652 25.058 0.321 0.219c0.05-0.019 0.078-0.055 0.078-0.098 0.027-0.054 0.015-0.148-0.039-0.281-0.082-0.265-0.082-0.508 0-0.719 0.054-0.214 0.078-0.546 0.078-1v-0.48c0.055-0.082 0.148-0.121 0.281-0.121 0.266 0 0.414 0.039 0.441 0.121v0.559l-0.359 1.562c-0.055 0.266-0.082 0.41-0.082 0.438 0.133 0 0.242-0.106 0.32-0.321l1-1.758c0.133-0.214 0.2-0.414 0.2-0.601v-0.52c-0.079-0.187-0.586-0.226-1.52-0.121-0.32 0.055-0.519 0.133-0.601 0.242-0.079 0.293-0.145 0.504-0.2 0.637-0.023 0.11-0.039 0.414-0.039 0.922l0.121 1.32z" inkscape:connector-curvature="0"/>
      <path id="path130" style="fill-rule:evenodd;fill:#7b6029" d="m11.77 24.777 0.242 0.442c-0.348-0.348-0.586-0.563-0.719-0.641-0.297-0.188-0.602-0.332-0.922-0.442l-0.559-0.199c-0.265-0.051-0.414-0.105-0.441-0.16l-0.121-0.32c0.082-0.211 0.297-0.254 0.641-0.117 0.027 0 0.148 0.023 0.359 0.078 0.16 0.054 0.27 0.105 0.32 0.16 0.082 0.078 0.227 0.16 0.442 0.238 0.215 0.16 0.465 0.481 0.758 0.961zm0.203 0.801 0.117-0.16c0.027-0.078 0.121-0.172 0.281-0.282-0.027-0.425-0.094-0.703-0.199-0.839-0.215-0.293-0.469-0.547-0.762-0.758-0.238-0.215-0.504-0.387-0.797-0.52-0.187-0.133-0.535-0.226-1.043-0.281-0.558-0.055-0.84 0.055-0.84 0.32-0.027 0.161-0.027 0.332 0 0.52 0 0.215 0.161 0.426 0.481 0.641 0.32 0.187 0.879 0.398 1.68 0.64 0.375 0.106 0.734 0.344 1.082 0.719z" inkscape:connector-curvature="0"/>
      <path id="path132" style="fill-rule:evenodd;fill:#614c20" d="m11.41 24.699 0.203 0.52 0.039 0.039 0.16-0.282-0.519-0.398c-0.297-0.188-0.602-0.332-0.922-0.442l-0.559-0.199c-0.214-0.027-0.347-0.066-0.402-0.121-0.133 0-0.238 0.055-0.32 0.16 0.215 0.028 0.668 0.16 1.363 0.403l0.957 0.32z" inkscape:connector-curvature="0"/>
      <path id="path134" style="fill-rule:evenodd;fill:#614c20" d="m11.852 24.976 0.199 0.282 0.039 0.121c0.027-0.055 0.121-0.133 0.281-0.243-0.027-0.425-0.094-0.703-0.199-0.839-0.215-0.293-0.469-0.547-0.762-0.758-0.238-0.215-0.504-0.387-0.797-0.52-0.187-0.133-0.535-0.226-1.043-0.281-0.558-0.055-0.84 0.055-0.84 0.32-0.027 0.161-0.027 0.332 0 0.52l0.082 0.281c0.079-0.348 0.133-0.547 0.161-0.601 0.105-0.106 0.277-0.161 0.519-0.161l0.598 0.122c0.375 0.05 0.613 0.132 0.722 0.238l0.918 0.722c0.243 0.239 0.36 0.426 0.36 0.559 0 0.188-0.078 0.266-0.238 0.238z" inkscape:connector-curvature="0"/>
      <path id="path136" style="fill-rule:evenodd;fill:#614c20" d="m11.973 25.578 0.117-0.16v-0.039l-0.039-0.121-0.121-0.161 0.082 0.122-0.2-0.243-0.16 0.282 0.321 0.32z" inkscape:connector-curvature="0"/>
      <path id="path138" style="fill-rule:evenodd;fill:#7b6029" d="m13.812 26.34 0.918-0.961c0.188-0.266 0.415-0.801 0.68-1.602 0.082-0.266 0.121-0.652 0.121-1.16 0-0.16-0.039-0.266-0.121-0.32-0.265-0.184-0.504-0.278-0.719-0.278-0.933-0.082-1.48 0.278-1.64 1.078-0.078 0.536 0 1.188 0.242 1.961 0.133 0.321 0.199 0.559 0.199 0.719 0.16 0.055 0.238-0.133 0.238-0.558 0-0.348-0.027-0.614-0.078-0.801 0-0.668 0.012-1.067 0.039-1.199 0.028-0.161 0.079-0.266 0.161-0.321 0.05-0.027 0.171-0.054 0.359-0.082 0.375 0 0.586 0.055 0.641 0.16 0.05 0.082 0.027 0.43-0.082 1.043-0.184 0.719-0.504 1.239-0.958 1.559-0.214 0.215-0.32 0.348-0.32 0.398 0.055 0.215 0.16 0.321 0.32 0.321v0.043z" inkscape:connector-curvature="0"/>
      <path id="path140" style="fill-rule:evenodd;fill:#614c20" d="m13.652 25.738-0.082 0.039-0.078 0.199c0.055 0.215 0.16 0.321 0.32 0.321v0.043l0.918-0.961c0.188-0.266 0.415-0.801 0.68-1.602 0.082-0.266 0.121-0.652 0.121-1.16 0-0.16-0.039-0.266-0.121-0.32-0.265-0.184-0.504-0.278-0.719-0.278-0.425-0.054-0.773 0-1.039 0.16l0.559 0.04c0.426 0 0.734 0.093 0.922 0.281 0.078 0.078 0.117 0.293 0.117 0.636 0.027 0.161-0.012 0.43-0.117 0.801-0.188 0.293-0.321 0.52-0.403 0.68l-0.32 0.723c-0.133 0.265-0.32 0.398-0.558 0.398h-0.2z" inkscape:connector-curvature="0"/>
      <path id="path142" style="fill-rule:evenodd;fill:#614c20" d="m13.41 24.539c0.11 0.32 0.16 0.547 0.16 0.68 0 0.238 0.043 0.359 0.121 0.359 0.079-0.426 0.067-0.813-0.039-1.16 0-0.668 0.012-1.067 0.039-1.199 0.028-0.161 0.079-0.266 0.161-0.321 0.027-0.027 0.132-0.054 0.32-0.082h-0.039c-0.188-0.051-0.375-0.023-0.563 0.082-0.16 0.028-0.238 0.16-0.238 0.399 0 0.562 0.027 0.976 0.078 1.242z" inkscape:connector-curvature="0"/>
      <path id="path144" style="fill-rule:evenodd;fill:#9b7e44" d="m13.293 25.058 0.078 0.239v-0.321l-0.078-0.32v-0.359c-0.109-0.371-0.16-0.625-0.16-0.758 0-0.16-0.028-0.266-0.082-0.32-0.055 0.613 0.027 1.226 0.242 1.839z" inkscape:connector-curvature="0"/>
      <g id="g146">
        <g id="g148">
          <g id="g154">
            <path id="path162" style="fill-rule:evenodd;fill:url(#linearGradient156)" d="m8.891 16.34c-0.559-0.563-0.918-1.508-1.079-2.844-0.054-0.266-0.082-0.652-0.082-1.156 0.668 1.492 1.508 3.078 2.52 4.757-0.504-0.132-0.957-0.386-1.359-0.757zm3.48 0.277-0.078 0.039c-0.242 0.188-0.508 0.32-0.801 0.402-1.387-2.242-2.547-4.453-3.48-6.64l0.16-0.282 0.48-0.558c1.094 2.558 2.332 4.906 3.719 7.039zm3-5.801c-0.32-1.437-0.933-2.547-1.84-3.32-0.879-0.746-2.039-1.09-3.48-1.039-0.559 0.054-0.961 0.121-1.199 0.199-0.375-1.066-0.629-1.863-0.762-2.398l-1.117 0.281 0.757 2.558c-0.32 0.215-0.57 0.414-0.757 0.602-0.426-1.336-0.723-2.336-0.883-3l-0.797 0.117-0.203 0.16c0.375 1.442 0.746 2.657 1.121 3.641-0.852 1.281-1.094 2.867-0.719 4.762 0.32 1.84 0.985 3.211 2 4.117 0.961 0.883 2.16 1.32 3.598 1.32h0.242l0.801 1.121c0.426 0.028 0.879 0.028 1.359 0l-0.961-1.32c0.348-0.078 0.653-0.199 0.922-0.359l1.199 1.64 1.52-0.121c-0.266-0.32-0.856-1.094-1.762-2.32 0.348-0.399 0.629-0.946 0.84-1.641l-2.199-0.476v0.039c-1.227-1.95-2.332-4.067-3.321-6.36l0.481-0.043c0.613-0.023 1.199 0.188 1.762 0.641 0.48 0.426 0.839 1.121 1.078 2.082l2.32-0.883z" inkscape:connector-curvature="0"/>
          </g>
        </g>
      </g>
      <path id="path164" style="fill-rule:evenodd;fill:#517a0b" d="m7.812 13.496-0.042-0.399-0.2-0.402 0.082 1.203c0.16 1.281 0.52 2.227 1.078 2.84 0.403 0.398 0.856 0.641 1.36 0.719l-0.278-0.52c-0.32-0.105-0.628-0.308-0.921-0.597-0.559-0.563-0.918-1.508-1.079-2.844z" inkscape:connector-curvature="0"/>
      <path id="path166" style="fill-rule:evenodd;fill:#517a0b" d="m15.133 16.219 0.117-0.403-2.199-0.476v0.039c-1.254-2.028-2.305-4.028-3.16-6l-0.278 0.039c0.852 2.105 1.946 4.226 3.278 6.359v-0.039l2.242 0.481z" inkscape:connector-curvature="0"/>
      <path id="path168" style="fill-rule:evenodd;fill:#517a0b" d="m8.051 10.496v0.043l-0.16 0.277c0.906 2.215 2.066 4.426 3.48 6.641 0.348-0.106 0.602-0.238 0.762-0.399l0.078-0.082-0.121-0.199-0.598 0.281c-1.254-2-2.402-4.187-3.441-6.562z" inkscape:connector-curvature="0"/>
      <path id="path170" style="fill-rule:evenodd;fill:#517a0b" d="m14.293 17.859 1.437 1.957 0.442-0.039-1.68-2.199-0.199 0.281z" inkscape:connector-curvature="0"/>
      <path id="path172" style="fill-rule:evenodd;fill:#517a0b" d="m13.371 7.898c0.828 0.664 1.426 1.664 1.801 3l0.199-0.082c-0.32-1.437-0.933-2.547-1.84-3.32-0.879-0.746-2.039-1.09-3.48-1.039-0.559 0.054-0.961 0.121-1.199 0.199-0.375-1.066-0.629-1.863-0.762-2.398l-1.117 0.281 0.078 0.32 0.879-0.203 0.761 2.402c0.266-0.082 0.68-0.148 1.239-0.199 1.363-0.082 2.508 0.266 3.441 1.039z" inkscape:connector-curvature="0"/>
      <path id="path174" style="fill-rule:evenodd;fill:#517a0b" d="m7.531 7.258-0.558 0.441c-0.426-1.336-0.723-2.336-0.883-3l-0.797 0.117-0.203 0.16 0.082 0.203 0.758-0.082c0.375 1.332 0.683 2.321 0.922 2.961l0.761-0.562-0.082-0.238z" inkscape:connector-curvature="0"/>
      <path id="path176" style="fill-rule:evenodd;fill:#517a0b" d="m12.73 18.898-0.32 0.121 0.641 0.918h0.441l-0.762-1.039z" inkscape:connector-curvature="0"/>
      <path id="path178" style="fill-rule:evenodd;fill:#85b42a" d="m12.332 16.539 0.199-0.121 0.039-0.039c-1.386-2.16-2.613-4.508-3.679-7.039l-0.239 0.238c1.039 2.48 2.266 4.801 3.68 6.961z" inkscape:connector-curvature="0"/>
      <path id="path180" style="fill-rule:evenodd;fill:#85b42a" d="m10.012 16.695 0.48 0.16c-0.988-1.625-1.84-3.226-2.562-4.797l0.043 0.84c0.691 1.387 1.371 2.653 2.039 3.797z" inkscape:connector-curvature="0"/>
      <path id="path182" style="fill-rule:evenodd;fill:#85b42a" d="m15.371 10.816-0.039-0.117-2.082 0.758c-0.211-0.961-0.57-1.653-1.078-2.078-0.508-0.481-1.082-0.696-1.719-0.641l-0.48 0.039 0.078 0.199h0.16c0.613-0.023 1.199 0.188 1.762 0.641 0.48 0.426 0.839 1.121 1.078 2.082l2.32-0.883z" inkscape:connector-curvature="0"/>
      <path id="path184" style="fill-rule:evenodd;fill:#85b42a" d="m13.492 19.937-0.199-0.238h-0.961l-0.762-1.121h-0.238c-1.441 0-2.641-0.442-3.602-1.32-1.039-0.879-1.718-2.254-2.039-4.122-0.32-1.89-0.078-3.48 0.719-4.757h0.043c-0.457-1.254-0.816-2.442-1.082-3.563h-0.078l-0.203 0.16c0.375 1.442 0.746 2.657 1.121 3.641-0.852 1.281-1.094 2.867-0.719 4.762 0.32 1.84 0.985 3.211 2 4.117 0.961 0.883 2.16 1.32 3.598 1.32h0.242l0.801 1.121c0.426 0.028 0.879 0.028 1.359 0z" inkscape:connector-curvature="0"/>
      <path id="path186" style="fill-rule:evenodd;fill:#85b42a" d="m7.973 6.859c-0.27-0.801-0.508-1.601-0.723-2.402l-0.277 0.082c0.132 0.558 0.386 1.398 0.757 2.519l0.243-0.199z" inkscape:connector-curvature="0"/>
      <path id="path188" style="fill-rule:evenodd;fill:#85b42a" d="m13.453 18.258 1.199 1.64 1.52-0.121-0.16-0.199-1.121 0.078c-0.532-0.691-0.934-1.238-1.2-1.637-0.265 0.16-0.574 0.278-0.921 0.36l0.082 0.16 0.601-0.281z" inkscape:connector-curvature="0"/>
    </g>
  </g>
<metadata><rdf:RDF><cc:Work><dc:format>image/svg+xml</dc:format><dc:type rdf:resource="http://purl.org/dc/dcmitype/StillImage"/><cc:license rdf:resource="http://creativecommons.org/licenses/publicdomain/"/><dc:publisher><cc:Agent rdf:about="http://openclipart.org/"><dc:title>Openclipart</dc:title></cc:Agent></dc:publisher></cc:Work><cc:License rdf:about="http://creativecommons.org/licenses/publicdomain/"><cc:permits rdf:resource="http://creativecommons.org/ns#Reproduction"/><cc:permits rdf:resource="http://creativecommons.org/ns#Distribution"/><cc:permits rdf:resource="http://creativecommons.org/ns#DerivativeWorks"/></cc:License></rdf:RDF></metadata></svg>
